<?xml version="1.0" encoding="UTF-8"?>
<!DOCTYPE svg PUBLIC "-//W3C//DTD SVG 1.1//EN" "http://www.w3.org/Graphics/SVG/1.1/DTD/svg11.dtd">
<svg xmlns="http://www.w3.org/2000/svg" version="1.1" width="350px" height="350px" style="shape-rendering:geometricPrecision; text-rendering:geometricPrecision; image-rendering:optimizeQuality; fill-rule:evenodd; clip-rule:evenodd" xmlns:xlink="http://www.w3.org/1999/xlink">
<g><path style="opacity:0.004" fill="#fefffe" d="M 346.5,6.5 C 347.833,7.16667 347.833,7.16667 346.5,6.5 Z"/></g>
<g><path style="opacity:0.004" fill="#fefffe" d="M 246.5,9.5 C 247.833,10.1667 247.833,10.1667 246.5,9.5 Z"/></g>
<g><path style="opacity:0.004" fill="#fefffe" d="M 28.5,13.5 C 29.8333,14.1667 29.8333,14.1667 28.5,13.5 Z"/></g>
<g><path style="opacity:0.004" fill="#fefffe" d="M 323.5,23.5 C 324.833,24.1667 324.833,24.1667 323.5,23.5 Z"/></g>
<g><path style="opacity:0.004" fill="#fefffe" d="M 123.5,30.5 C 124.833,31.1667 124.833,31.1667 123.5,30.5 Z"/></g>
<g><path style="opacity:0.004" fill="#fefffe" d="M 284.5,34.5 C 285.833,35.1667 285.833,35.1667 284.5,34.5 Z"/></g>
<g><path style="opacity:0.004" fill="#fefffe" d="M 241.5,35.5 C 242.833,36.1667 242.833,36.1667 241.5,35.5 Z"/></g>
<g><path style="opacity:0.004" fill="#fefffe" d="M 158.5,37.5 C 159.833,38.1667 159.833,38.1667 158.5,37.5 Z"/></g>
<g><path style="opacity:0.004" fill="#fefffe" d="M 72.5,42.5 C 73.8333,43.1667 73.8333,43.1667 72.5,42.5 Z"/></g>
<g><path style="opacity:0.004" fill="#fefffe" d="M 108.5,43.5 C 109.833,44.1667 109.833,44.1667 108.5,43.5 Z"/></g>
<g><path style="opacity:0.004" fill="#fefffe" d="M 297.5,48.5 C 298.833,49.1667 298.833,49.1667 297.5,48.5 Z"/></g>
<g><path style="opacity:0.004" fill="#fefffe" d="M 84.5,51.5 C 85.8333,52.1667 85.8333,52.1667 84.5,51.5 Z"/></g>
<g><path style="opacity:0.004" fill="#fefffe" d="M 104.5,53.5 C 105.833,54.1667 105.833,54.1667 104.5,53.5 Z"/></g>
<g><path style="opacity:0.004" fill="#fefffe" d="M 172.5,54.5 C 173.833,55.1667 173.833,55.1667 172.5,54.5 Z"/></g>
<g><path style="opacity:0.004" fill="#fefffe" d="M 132.5,56.5 C 133.833,57.1667 133.833,57.1667 132.5,56.5 Z"/></g>
<g><path style="opacity:0.004" fill="#fefffe" d="M 313.5,64.5 C 314.833,65.1667 314.833,65.1667 313.5,64.5 Z"/></g>
<g><path style="opacity:0.004" fill="#fefffe" d="M 183.5,67.5 C 184.833,68.1667 184.833,68.1667 183.5,67.5 Z"/></g>
<g><path style="opacity:0.004" fill="#fefffe" d="M 211.5,69.5 C 212.833,70.1667 212.833,70.1667 211.5,69.5 Z"/></g>
<g><path style="opacity:0.004" fill="#fefffe" d="M 219.5,70.5 C 220.833,71.1667 220.833,71.1667 219.5,70.5 Z"/></g>
<g><path style="opacity:0.004" fill="#fefffe" d="M 126.5,72.5 C 127.833,73.1667 127.833,73.1667 126.5,72.5 Z"/></g>
<g><path style="opacity:0.004" fill="#fefffe" d="M 317.5,75.5 C 318.833,76.1667 318.833,76.1667 317.5,75.5 Z"/></g>
<g><path style="opacity:0.004" fill="#fefffe" d="M 253.5,76.5 C 254.833,77.1667 254.833,77.1667 253.5,76.5 Z"/></g>
<g><path style="opacity:0.004" fill="#fefffe" d="M 154.5,77.5 C 155.833,78.1667 155.833,78.1667 154.5,77.5 Z"/></g>
<g><path style="opacity:0.004" fill="#fefffe" d="M 145.5,85.5 C 146.833,86.1667 146.833,86.1667 145.5,85.5 Z"/></g>
<g><path style="opacity:0.004" fill="#fefffe" d="M 275.5,86.5 C 276.833,87.1667 276.833,87.1667 275.5,86.5 Z"/></g>
<g><path style="opacity:0.004" fill="#fefffe" d="M 206.5,90.5 C 207.833,91.1667 207.833,91.1667 206.5,90.5 Z"/></g>
<g><path style="opacity:0.004" fill="#fefffe" d="M 225.5,91.5 C 226.833,92.1667 226.833,92.1667 225.5,91.5 Z"/></g>
<g><path style="opacity:0.004" fill="#fefffe" d="M 281.5,91.5 C 282.833,92.1667 282.833,92.1667 281.5,91.5 Z"/></g>
<g><path style="opacity:0.004" fill="#fefffe" d="M 287.5,91.5 C 288.833,92.1667 288.833,92.1667 287.5,91.5 Z"/></g>
<g><path style="opacity:0.004" fill="#fefffe" d="M 339.5,92.5 C 340.833,93.1667 340.833,93.1667 339.5,92.5 Z"/></g>
<g><path style="opacity:0.004" fill="#fefffe" d="M 2.5,95.5 C 3.83333,96.1667 3.83333,96.1667 2.5,95.5 Z"/></g>
<g><path style="opacity:0.004" fill="#fefffe" d="M 182.5,96.5 C 183.833,97.1667 183.833,97.1667 182.5,96.5 Z"/></g>
<g><path style="opacity:0.004" fill="#fefffe" d="M 241.5,97.5 C 242.833,98.1667 242.833,98.1667 241.5,97.5 Z"/></g>
<g><path style="opacity:0.004" fill="#fefffe" d="M 37.5,98.5 C 38.8333,99.1667 38.8333,99.1667 37.5,98.5 Z"/></g>
<g><path style="opacity:0.004" fill="#fefffe" d="M 10.5,106.5 C 11.8333,107.167 11.8333,107.167 10.5,106.5 Z"/></g>
<g><path style="opacity:0.004" fill="#fefffe" d="M 110.5,108.5 C 111.833,109.167 111.833,109.167 110.5,108.5 Z"/></g>
<g><path style="opacity:0.004" fill="#fefffe" d="M 265.5,113.5 C 266.833,114.167 266.833,114.167 265.5,113.5 Z"/></g>
<g><path style="opacity:0.004" fill="#fefffe" d="M 325.5,113.5 C 326.833,114.167 326.833,114.167 325.5,113.5 Z"/></g>
<g><path style="opacity:0.004" fill="#fefffe" d="M 99.5,115.5 C 100.833,116.167 100.833,116.167 99.5,115.5 Z"/></g>
<g><path style="opacity:0.004" fill="#fefffe" d="M 225.5,115.5 C 226.833,116.167 226.833,116.167 225.5,115.5 Z"/></g>
<g><path style="opacity:0.004" fill="#fefffe" d="M 238.5,119.5 C 239.833,120.167 239.833,120.167 238.5,119.5 Z"/></g>
<g><path style="opacity:0.004" fill="#fefffe" d="M 219.5,122.5 C 220.833,123.167 220.833,123.167 219.5,122.5 Z"/></g>
<g><path style="opacity:0.004" fill="#fefffe" d="M 292.5,125.5 C 293.833,126.167 293.833,126.167 292.5,125.5 Z"/></g>
<g><path style="opacity:0.004" fill="#fefffe" d="M 270.5,126.5 C 271.833,127.167 271.833,127.167 270.5,126.5 Z"/></g>
<g><path style="opacity:0.004" fill="#fefffe" d="M 238.5,128.5 C 239.833,129.167 239.833,129.167 238.5,128.5 Z"/></g>
<g><path style="opacity:0.004" fill="#fefffe" d="M 11.5,130.5 C 12.8333,131.167 12.8333,131.167 11.5,130.5 Z"/></g>
<g><path style="opacity:0.004" fill="#fefffe" d="M 211.5,130.5 C 212.833,131.167 212.833,131.167 211.5,130.5 Z"/></g>
<g><path style="opacity:0.004" fill="#fefffe" d="M 277.5,130.5 C 278.833,131.167 278.833,131.167 277.5,130.5 Z"/></g>
<g><path style="opacity:0.004" fill="#fefffe" d="M 152.5,134.5 C 153.833,135.167 153.833,135.167 152.5,134.5 Z"/></g>
<g><path style="opacity:0.004" fill="#fefffe" d="M 99.5,136.5 C 100.833,137.167 100.833,137.167 99.5,136.5 Z"/></g>
<g><path style="opacity:0.004" fill="#fefffe" d="M 229.5,136.5 C 230.833,137.167 230.833,137.167 229.5,136.5 Z"/></g>
<g><path style="opacity:0.004" fill="#fefffe" d="M 112.5,141.5 C 113.833,142.167 113.833,142.167 112.5,141.5 Z"/></g>
<g><path style="opacity:1" fill="#5f5b98" d="M 159.5,141.5 C 164.118,139.831 168.451,140.497 172.5,143.5C 173.167,145.167 173.833,146.833 174.5,148.5C 174.806,151.385 174.473,154.052 173.5,156.5C 175.084,149.305 172.417,144.971 165.5,143.5C 164.01,141.72 162.01,141.054 159.5,141.5 Z"/></g>
<g><path style="opacity:1" fill="#e6e5f9" d="M 190.5,143.5 C 194.531,145.553 196.531,148.887 196.5,153.5C 195.093,150.961 193.927,151.294 193,154.5C 192.517,153.552 192.351,152.552 192.5,151.5C 193.198,147.677 191.365,145.677 187,145.5C 182.73,145.271 180.564,147.271 180.5,151.5C 178.81,151.856 177.81,152.856 177.5,154.5C 176.514,158.97 176.181,163.637 176.5,168.5C 175.539,166.735 175.205,164.735 175.5,162.5C 174.213,154.502 176.88,148.335 183.5,144C 185.81,143.503 188.143,143.337 190.5,143.5 Z"/></g>
<g><path style="opacity:0.557" fill="#c7c4e7" d="M 172.5,143.5 C 174.833,146.167 177.167,146.167 179.5,143.5C 178.833,146.167 177.167,147.833 174.5,148.5C 173.833,146.833 173.167,145.167 172.5,143.5 Z"/></g>
<g><path style="opacity:1" fill="#f1f0fc" d="M 165.5,143.5 C 172.417,144.971 175.084,149.305 173.5,156.5C 173.672,157.492 173.338,158.158 172.5,158.5C 171.464,156.609 171.464,154.776 172.5,153C 171.874,152.25 171.374,151.416 171,150.5C 169.833,152.333 168.333,153.833 166.5,155C 167.756,155.417 168.423,156.25 168.5,157.5C 167.298,156.595 165.964,156.595 164.5,157.5C 164.5,155.833 164.5,154.167 164.5,152.5C 166.104,151.713 166.771,150.38 166.5,148.5C 165.448,148.649 164.448,148.483 163.5,148C 163.833,147.667 164.167,147.333 164.5,147C 163.5,146.667 162.5,146.333 161.5,146C 162.696,145.346 162.696,144.846 161.5,144.5C 159.929,145.309 158.262,145.643 156.5,145.5C 159.171,143.882 162.171,143.215 165.5,143.5 Z"/></g>
<g><path style="opacity:1" fill="#5b579a" d="M 190.5,141.5 C 191.506,142.396 191.506,143.062 190.5,143.5C 188.143,143.337 185.81,143.503 183.5,144C 176.88,148.335 174.213,154.502 175.5,162.5C 174.9,161.1 173.9,160.1 172.5,159.5C 172.5,159.167 172.5,158.833 172.5,158.5C 173.338,158.158 173.672,157.492 173.5,156.5C 174.473,154.052 174.806,151.385 174.5,148.5C 177.167,147.833 178.833,146.167 179.5,143.5C 182.868,141.073 186.535,140.407 190.5,141.5 Z"/></g>
<g><path style="opacity:1" fill="#faf9fb" d="M 192.5,151.5 C 190.83,151.249 189.33,150.582 188,149.5C 187.536,150.094 187.369,150.761 187.5,151.5C 184.888,150.77 182.554,150.77 180.5,151.5C 180.564,147.271 182.73,145.271 187,145.5C 191.365,145.677 193.198,147.677 192.5,151.5 Z"/></g>
<g><path style="opacity:1" fill="#f8f9fd" d="M 164.5,152.5 C 162.58,151.935 160.913,150.935 159.5,149.5C 158.082,147.692 156.082,147.025 153.5,147.5C 153.973,146.094 154.973,145.427 156.5,145.5C 158.262,145.643 159.929,145.309 161.5,144.5C 162.696,144.846 162.696,145.346 161.5,146C 162.5,146.333 163.5,146.667 164.5,147C 164.167,147.333 163.833,147.667 163.5,148C 164.448,148.483 165.448,148.649 166.5,148.5C 166.771,150.38 166.104,151.713 164.5,152.5 Z"/></g>
<g><path style="opacity:0.004" fill="#fefffe" d="M 234.5,148.5 C 235.833,149.167 235.833,149.167 234.5,148.5 Z"/></g>
<g><path style="opacity:1" fill="#f4f2fd" d="M 159.5,149.5 C 160.913,150.935 162.58,151.935 164.5,152.5C 163.167,152.5 161.833,152.5 160.5,152.5C 160.201,154.604 160.534,156.604 161.5,158.5C 162.417,157.873 163.417,157.539 164.5,157.5C 163.402,158.397 163.402,159.23 164.5,160C 162.618,160.198 160.952,160.698 159.5,161.5C 157.932,159.189 157.098,156.522 157,153.5C 156.111,154.888 155.611,154.722 155.5,153C 156.202,151.144 157.536,149.977 159.5,149.5 Z"/></g>
<g><path style="opacity:1" fill="#f8f5fe" d="M 187.5,151.5 C 188.23,152.712 189.23,153.712 190.5,154.5C 190.376,155.107 190.043,155.44 189.5,155.5C 186.451,152.522 184.785,153.189 184.5,157.5C 183.527,159.948 183.194,162.615 183.5,165.5C 182.262,163.786 181.595,161.786 181.5,159.5C 178.09,159.616 176.756,157.95 177.5,154.5C 177.81,152.856 178.81,151.856 180.5,151.5C 182.554,150.77 184.888,150.77 187.5,151.5 Z"/></g>
<g><path style="opacity:1" fill="#faf8fe" d="M 192.5,151.5 C 192.351,152.552 192.517,153.552 193,154.5C 193.927,151.294 195.093,150.961 196.5,153.5C 197.183,159.061 195.849,164.061 192.5,168.5C 191.222,164.787 190.222,161.12 189.5,157.5C 189.5,156.833 189.5,156.167 189.5,155.5C 190.043,155.44 190.376,155.107 190.5,154.5C 189.23,153.712 188.23,152.712 187.5,151.5C 187.369,150.761 187.536,150.094 188,149.5C 189.33,150.582 190.83,151.249 192.5,151.5 Z"/></g>
<g><path style="opacity:0.004" fill="#fefffe" d="M 216.5,153.5 C 217.833,154.167 217.833,154.167 216.5,153.5 Z"/></g>
<g><path style="opacity:1" fill="#f6f7fd" d="M 172.5,158.5 C 172.5,158.833 172.5,159.167 172.5,159.5C 171.728,160.694 170.728,161.694 169.5,162.5C 168.833,162.5 168.5,162.833 168.5,163.5C 167.475,162.626 166.808,161.459 166.5,160C 167.509,159.645 168.176,158.812 168.5,157.5C 168.423,156.25 167.756,155.417 166.5,155C 168.333,153.833 169.833,152.333 171,150.5C 171.374,151.416 171.874,152.25 172.5,153C 171.464,154.776 171.464,156.609 172.5,158.5 Z"/></g>
<g><path style="opacity:1" fill="#68649a" d="M 190.5,141.5 C 197.429,145.346 200.762,151.346 200.5,159.5C 200.5,160.833 200.5,162.167 200.5,163.5C 200.167,163.5 199.833,163.5 199.5,163.5C 199.657,162.127 199.49,160.793 199,159.5C 198.79,161.058 198.29,162.391 197.5,163.5C 197.813,159.958 197.479,156.625 196.5,153.5C 196.531,148.887 194.531,145.553 190.5,143.5C 191.506,143.062 191.506,142.396 190.5,141.5 Z"/></g>
<g><path style="opacity:0.004" fill="#fefffe" d="M 309.5,155.5 C 310.833,156.167 310.833,156.167 309.5,155.5 Z"/></g>
<g><path style="opacity:1" fill="#554f95" d="M 164.5,152.5 C 164.5,154.167 164.5,155.833 164.5,157.5C 163.417,157.539 162.417,157.873 161.5,158.5C 160.534,156.604 160.201,154.604 160.5,152.5C 161.833,152.5 163.167,152.5 164.5,152.5 Z"/></g>
<g><path style="opacity:1" fill="#534f9c" d="M 189.5,155.5 C 189.5,156.167 189.5,156.833 189.5,157.5C 189.809,161.705 189.143,165.705 187.5,169.5C 186.504,169.586 185.671,169.252 185,168.5C 184.501,164.848 184.335,161.182 184.5,157.5C 184.785,153.189 186.451,152.522 189.5,155.5 Z"/></g>
<g><path style="opacity:1" fill="#f9f8fe" d="M 168.5,157.5 C 168.176,158.812 167.509,159.645 166.5,160C 166.808,161.459 167.475,162.626 168.5,163.5C 170.036,168.252 168.369,169.586 163.5,167.5C 162.167,167.833 160.833,168.167 159.5,168.5C 159.586,167.504 159.252,166.671 158.5,166C 159.448,165.517 160.448,165.351 161.5,165.5C 161.843,163.517 161.176,162.183 159.5,161.5C 160.952,160.698 162.618,160.198 164.5,160C 163.402,159.23 163.402,158.397 164.5,157.5C 165.964,156.595 167.298,156.595 168.5,157.5 Z"/></g>
<g><path style="opacity:1" fill="#f9f9fd" d="M 153.5,147.5 C 156.082,147.025 158.082,147.692 159.5,149.5C 157.536,149.977 156.202,151.144 155.5,153C 155.611,154.722 156.111,154.888 157,153.5C 157.098,156.522 157.932,159.189 159.5,161.5C 161.176,162.183 161.843,163.517 161.5,165.5C 160.448,165.351 159.448,165.517 158.5,166C 159.252,166.671 159.586,167.504 159.5,168.5C 159.5,170.167 159.5,171.833 159.5,173.5C 157.908,174.602 157.075,173.935 157,171.5C 156.667,172.833 156.333,174.167 156,175.5C 155.5,175 155,174.5 154.5,174C 154.639,168.87 154.972,163.703 155.5,158.5C 154.47,154.632 153.803,150.965 153.5,147.5 Z"/></g>
<g><path style="opacity:0.706" fill="#8580b7" d="M 150.5,147.5 C 150.334,157.172 150.5,166.839 151,176.5C 151.17,166.991 151.67,157.658 152.5,148.5C 152.216,158.552 152.55,168.552 153.5,178.5C 154.506,179.396 154.506,180.062 153.5,180.5C 151.797,179.34 151.131,180.007 151.5,182.5C 149.095,176.01 148.095,169.177 148.5,162C 148.667,158.167 148.833,154.333 149,150.5C 149.232,149.263 149.732,148.263 150.5,147.5 Z"/></g>
<g><path style="opacity:1" fill="#f8f7fd" d="M 177.5,154.5 C 176.756,157.95 178.09,159.616 181.5,159.5C 181.595,161.786 182.262,163.786 183.5,165.5C 183.005,167.482 182.505,169.482 182,171.5C 181.583,172.756 180.75,173.423 179.5,173.5C 177.75,172.341 176.75,170.674 176.5,168.5C 176.181,163.637 176.514,158.97 177.5,154.5 Z"/></g>
<g><path style="opacity:1" fill="#484593" d="M 172.5,159.5 C 173.9,160.1 174.9,161.1 175.5,162.5C 175.205,164.735 175.539,166.735 176.5,168.5C 176.75,170.674 177.75,172.341 179.5,173.5C 179.5,173.833 179.5,174.167 179.5,174.5C 176.431,175.471 174.098,174.471 172.5,171.5C 171.683,168.381 170.683,165.381 169.5,162.5C 170.728,161.694 171.728,160.694 172.5,159.5 Z"/></g>
<g><path style="opacity:0.282" fill="#b6b7ba" d="M 200.5,159.5 C 201.645,163.311 201.812,167.311 201,171.5C 200.76,173.852 199.927,175.852 198.5,177.5C 199.554,172.893 200.221,168.227 200.5,163.5C 200.5,162.167 200.5,160.833 200.5,159.5 Z"/></g>
<g><path style="opacity:1" fill="#f4f4fe" d="M 153.5,147.5 C 153.803,150.965 154.47,154.632 155.5,158.5C 154.972,163.703 154.639,168.87 154.5,174C 155,174.5 155.5,175 156,175.5C 156.333,174.167 156.667,172.833 157,171.5C 157.075,173.935 157.908,174.602 159.5,173.5C 159.349,177.314 157.349,178.981 153.5,178.5C 152.55,168.552 152.216,158.552 152.5,148.5C 152.5,147.833 152.833,147.5 153.5,147.5 Z"/></g>
<g><path style="opacity:0.004" fill="#feff00" d="M 0.5,168.5 C 1.83333,169.167 1.83333,169.167 0.5,168.5 Z"/></g>
<g><path style="opacity:1" fill="#4e4993" d="M 159.5,141.5 C 162.01,141.054 164.01,141.72 165.5,143.5C 162.171,143.215 159.171,143.882 156.5,145.5C 154.973,145.427 153.973,146.094 153.5,147.5C 152.833,147.5 152.5,147.833 152.5,148.5C 151.67,157.658 151.17,166.991 151,176.5C 150.5,166.839 150.334,157.172 150.5,147.5C 152.223,143.791 155.223,141.791 159.5,141.5 Z"/></g>
<g><path style="opacity:0.004" fill="#fefffe" d="M 260.5,168.5 C 261.833,169.167 261.833,169.167 260.5,168.5 Z"/></g>
<g><path style="opacity:1" fill="#edeefb" d="M 196.5,153.5 C 197.479,156.625 197.813,159.958 197.5,163.5C 197.512,167.45 196.179,170.784 193.5,173.5C 192.491,170.28 190.491,169.614 187.5,171.5C 187.5,170.833 187.5,170.167 187.5,169.5C 189.143,165.705 189.809,161.705 189.5,157.5C 190.222,161.12 191.222,164.787 192.5,168.5C 195.849,164.061 197.183,159.061 196.5,153.5 Z"/></g>
<g><path style="opacity:0.004" fill="#fefffe" d="M 118.5,170.5 C 119.833,171.167 119.833,171.167 118.5,170.5 Z"/></g>
<g><path style="opacity:1" fill="#4b4786" d="M 199.5,163.5 C 199.295,170.143 196.628,175.477 191.5,179.5C 191.5,178.167 190.833,177.5 189.5,177.5C 189.5,177.167 189.5,176.833 189.5,176.5C 191.404,176.262 192.738,175.262 193.5,173.5C 196.179,170.784 197.512,167.45 197.5,163.5C 198.29,162.391 198.79,161.058 199,159.5C 199.49,160.793 199.657,162.127 199.5,163.5 Z"/></g>
<g><path style="opacity:1" fill="#504b90" d="M 163.5,167.5 C 164.322,171.125 165.656,174.625 167.5,178C 169.112,178.72 170.612,178.554 172,177.5C 172.495,175.527 172.662,173.527 172.5,171.5C 174.098,174.471 176.431,175.471 179.5,174.5C 180.058,175.79 181.058,176.623 182.5,177C 184.81,177.497 187.143,177.663 189.5,177.5C 190.833,177.5 191.5,178.167 191.5,179.5C 188.57,180.299 185.57,180.632 182.5,180.5C 180.5,179.5 178.5,178.5 176.5,177.5C 176.167,177.5 175.833,177.5 175.5,177.5C 173.112,180.076 170.112,181.076 166.5,180.5C 164.792,178.784 163.458,176.784 162.5,174.5C 161.197,176.937 159.53,179.104 157.5,181C 155.934,181.765 154.601,181.598 153.5,180.5C 154.506,180.062 154.506,179.396 153.5,178.5C 157.349,178.981 159.349,177.314 159.5,173.5C 159.5,171.833 159.5,170.167 159.5,168.5C 160.833,168.167 162.167,167.833 163.5,167.5 Z"/></g>
<g><path style="opacity:0.004" fill="#fefffe" d="M 55.5,173.5 C 56.8333,174.167 56.8333,174.167 55.5,173.5 Z"/></g>
<g><path style="opacity:1" fill="#efeffb" d="M 169.5,162.5 C 170.683,165.381 171.683,168.381 172.5,171.5C 172.662,173.527 172.495,175.527 172,177.5C 170.612,178.554 169.112,178.72 167.5,178C 165.656,174.625 164.322,171.125 163.5,167.5C 168.369,169.586 170.036,168.252 168.5,163.5C 168.5,162.833 168.833,162.5 169.5,162.5 Z"/></g>
<g><path style="opacity:1" fill="#e7e7f9" d="M 184.5,157.5 C 184.335,161.182 184.501,164.848 185,168.5C 185.671,169.252 186.504,169.586 187.5,169.5C 187.5,170.167 187.5,170.833 187.5,171.5C 184.513,171.948 183.513,173.448 184.5,176C 186.134,176.494 187.801,176.66 189.5,176.5C 189.5,176.833 189.5,177.167 189.5,177.5C 187.143,177.663 184.81,177.497 182.5,177C 181.058,176.623 180.058,175.79 179.5,174.5C 179.5,174.167 179.5,173.833 179.5,173.5C 180.75,173.423 181.583,172.756 182,171.5C 182.505,169.482 183.005,167.482 183.5,165.5C 183.194,162.615 183.527,159.948 184.5,157.5 Z"/></g>
<g><path style="opacity:1" fill="#f7f7fd" d="M 193.5,173.5 C 192.738,175.262 191.404,176.262 189.5,176.5C 187.801,176.66 186.134,176.494 184.5,176C 183.513,173.448 184.513,171.948 187.5,171.5C 190.491,169.614 192.491,170.28 193.5,173.5 Z"/></g>
<g><path style="opacity:1" fill="#141425" d="M 199.5,163.5 C 199.833,163.5 200.167,163.5 200.5,163.5C 200.221,168.227 199.554,172.893 198.5,177.5C 198.573,179.027 197.906,180.027 196.5,180.5C 191.688,181.678 187.021,181.678 182.5,180.5C 185.57,180.632 188.57,180.299 191.5,179.5C 196.628,175.477 199.295,170.143 199.5,163.5 Z"/></g>
<g><path style="opacity:0.004" fill="#fefffe" d="M 201.5,175.5 C 202.833,176.167 202.833,176.167 201.5,175.5 Z"/></g>
<g><path style="opacity:1" fill="#23232b" d="M 166.5,180.5 C 165.833,180.5 165.167,180.5 164.5,180.5C 164.217,179.711 163.717,179.044 163,178.5C 162.392,180.154 161.892,181.821 161.5,183.5C 159.12,186.874 156.12,187.374 152.5,185C 151.748,184.329 151.414,183.496 151.5,182.5C 151.131,180.007 151.797,179.34 153.5,180.5C 154.601,181.598 155.934,181.765 157.5,181C 159.53,179.104 161.197,176.937 162.5,174.5C 163.458,176.784 164.792,178.784 166.5,180.5 Z"/></g>
<g><path style="opacity:1" fill="#232326" d="M 175.5,177.5 C 175.552,179.903 175.219,182.236 174.5,184.5C 171.214,187.267 168.214,186.934 165.5,183.5C 165.443,182.391 165.11,181.391 164.5,180.5C 165.167,180.5 165.833,180.5 166.5,180.5C 170.112,181.076 173.112,180.076 175.5,177.5 Z"/></g>
<g><path style="opacity:1" fill="#282829" d="M 176.5,177.5 C 178.5,178.5 180.5,179.5 182.5,180.5C 187.021,181.678 191.688,181.678 196.5,180.5C 195.405,183.735 193.072,185.568 189.5,186C 186.518,186.703 183.851,186.203 181.5,184.5C 181.027,183.094 180.027,182.427 178.5,182.5C 177.833,180.833 177.167,179.167 176.5,177.5 Z"/></g>
<g><path style="opacity:0.106" fill="#c6c9c5" d="M 164.5,180.5 C 165.11,181.391 165.443,182.391 165.5,183.5C 164.167,182.167 162.833,182.167 161.5,183.5C 161.892,181.821 162.392,180.154 163,178.5C 163.717,179.044 164.217,179.711 164.5,180.5 Z"/></g>
<g><path style="opacity:0.055" fill="#c5c7c6" d="M 175.5,177.5 C 175.833,177.5 176.167,177.5 176.5,177.5C 177.167,179.167 177.833,180.833 178.5,182.5C 176.938,182.733 175.605,183.4 174.5,184.5C 175.219,182.236 175.552,179.903 175.5,177.5 Z"/></g>
<g><path style="opacity:0.443" fill="#a3a2a8" d="M 178.5,182.5 C 180.027,182.427 181.027,183.094 181.5,184.5C 179.973,184.573 178.973,183.906 178.5,182.5 Z"/></g>
<g><path style="opacity:0.004" fill="#fefffe" d="M 296.5,183.5 C 297.833,184.167 297.833,184.167 296.5,183.5 Z"/></g>
<g><path style="opacity:0.004" fill="#fefffe" d="M 225.5,184.5 C 226.833,185.167 226.833,185.167 225.5,184.5 Z"/></g>
<g><path style="opacity:0.004" fill="#fefffe" d="M 206.5,191.5 C 207.833,192.167 207.833,192.167 206.5,191.5 Z"/></g>
<g><path style="opacity:0.004" fill="#fefffe" d="M 268.5,200.5 C 269.833,201.167 269.833,201.167 268.5,200.5 Z"/></g>
<g><path style="opacity:0.004" fill="#fefffe" d="M 61.5,209.5 C 62.8333,210.167 62.8333,210.167 61.5,209.5 Z"/></g>
<g><path style="opacity:0.004" fill="#fefffe" d="M 301.5,212.5 C 302.833,213.167 302.833,213.167 301.5,212.5 Z"/></g>
<g><path style="opacity:0.004" fill="#fefffe" d="M 248.5,215.5 C 249.833,216.167 249.833,216.167 248.5,215.5 Z"/></g>
<g><path style="opacity:0.004" fill="#fefffe" d="M 48.5,218.5 C 49.8333,219.167 49.8333,219.167 48.5,218.5 Z"/></g>
<g><path style="opacity:0.004" fill="#fefffe" d="M 272.5,219.5 C 273.833,220.167 273.833,220.167 272.5,219.5 Z"/></g>
<g><path style="opacity:0.004" fill="#fefffe" d="M 112.5,220.5 C 113.833,221.167 113.833,221.167 112.5,220.5 Z"/></g>
<g><path style="opacity:0.004" fill="#fefffe" d="M 245.5,223.5 C 246.833,224.167 246.833,224.167 245.5,223.5 Z"/></g>
<g><path style="opacity:0.004" fill="#fefffe" d="M 162.5,231.5 C 163.833,232.167 163.833,232.167 162.5,231.5 Z"/></g>
<g><path style="opacity:0.004" fill="#fefffe" d="M 199.5,231.5 C 200.833,232.167 200.833,232.167 199.5,231.5 Z"/></g>
<g><path style="opacity:0.004" fill="#fefffe" d="M 8.5,235.5 C 9.83333,236.167 9.83333,236.167 8.5,235.5 Z"/></g>
<g><path style="opacity:0.004" fill="#fefffe" d="M 127.5,240.5 C 128.833,241.167 128.833,241.167 127.5,240.5 Z"/></g>
<g><path style="opacity:0.004" fill="#fefffe" d="M 324.5,245.5 C 325.833,246.167 325.833,246.167 324.5,245.5 Z"/></g>
<g><path style="opacity:0.004" fill="#fefffe" d="M 184.5,247.5 C 185.833,248.167 185.833,248.167 184.5,247.5 Z"/></g>
<g><path style="opacity:0.004" fill="#fefffe" d="M 301.5,251.5 C 302.833,252.167 302.833,252.167 301.5,251.5 Z"/></g>
<g><path style="opacity:0.004" fill="#fefffe" d="M 258.5,254.5 C 259.833,255.167 259.833,255.167 258.5,254.5 Z"/></g>
<g><path style="opacity:0.004" fill="#fefffe" d="M 77.5,256.5 C 78.8333,257.167 78.8333,257.167 77.5,256.5 Z"/></g>
<g><path style="opacity:0.004" fill="#fefffe" d="M 100.5,262.5 C 101.833,263.167 101.833,263.167 100.5,262.5 Z"/></g>
<g><path style="opacity:0.004" fill="#fefffe" d="M 115.5,264.5 C 116.833,265.167 116.833,265.167 115.5,264.5 Z"/></g>
<g><path style="opacity:0.004" fill="#fefffe" d="M 283.5,265.5 C 284.833,266.167 284.833,266.167 283.5,265.5 Z"/></g>
<g><path style="opacity:0.004" fill="#fefffe" d="M 104.5,272.5 C 105.833,273.167 105.833,273.167 104.5,272.5 Z"/></g>
<g><path style="opacity:0.004" fill="#fefffe" d="M 202.5,273.5 C 203.833,274.167 203.833,274.167 202.5,273.5 Z"/></g>
<g><path style="opacity:0.004" fill="#fefffe" d="M 68.5,282.5 C 69.8333,283.167 69.8333,283.167 68.5,282.5 Z"/></g>
<g><path style="opacity:0.004" fill="#fefffe" d="M 92.5,287.5 C 93.8333,288.167 93.8333,288.167 92.5,287.5 Z"/></g>
<g><path style="opacity:0.004" fill="#fefffe" d="M 349.5,299.5 C 349.5,299.833 349.5,300.167 349.5,300.5C 348.83,300.019 348.83,299.685 349.5,299.5 Z"/></g>
<g><path style="opacity:0.004" fill="#fefffe" d="M 128.5,307.5 C 129.833,308.167 129.833,308.167 128.5,307.5 Z"/></g>
<g><path style="opacity:0.004" fill="#fefffe" d="M 214.5,319.5 C 215.833,320.167 215.833,320.167 214.5,319.5 Z"/></g>
<g><path style="opacity:0.004" fill="#fefffe" d="M 29.5,326.5 C 30.8333,327.167 30.8333,327.167 29.5,326.5 Z"/></g>
<g><path style="opacity:0.004" fill="#fefffe" d="M 38.5,326.5 C 39.8333,327.167 39.8333,327.167 38.5,326.5 Z"/></g>
<g><path style="opacity:0.004" fill="#fefffe" d="M 67.5,327.5 C 68.8333,328.167 68.8333,328.167 67.5,327.5 Z"/></g>
<g><path style="opacity:0.004" fill="#fefffe" d="M 307.5,328.5 C 308.833,329.167 308.833,329.167 307.5,328.5 Z"/></g>
<g><path style="opacity:0.004" fill="#fefffe" d="M 95.5,330.5 C 96.8333,331.167 96.8333,331.167 95.5,330.5 Z"/></g>
<g><path style="opacity:0.004" fill="#fefffe" d="M 328.5,338.5 C 329.833,339.167 329.833,339.167 328.5,338.5 Z"/></g>
<g><path style="opacity:0.004" fill="#fefffe" d="M 222.5,339.5 C 223.833,340.167 223.833,340.167 222.5,339.5 Z"/></g>
<g><path style="opacity:0.004" fill="#fefffe" d="M 197.5,341.5 C 198.833,342.167 198.833,342.167 197.5,341.5 Z"/></g>
<g><path style="opacity:0.004" fill="#fefffe" d="M 243.5,344.5 C 244.833,345.167 244.833,345.167 243.5,344.5 Z"/></g>
<g><path style="opacity:0.004" fill="#fefffe" d="M 346.5,349.5 C 345.833,348.167 345.833,348.167 346.5,349.5 Z"/></g>
</svg>
